<?xml version="1.0" encoding="UTF-8"?>
<svg width="50px" height="50px" viewBox="0 0 50 50" version="1.1" xmlns="http://www.w3.org/2000/svg" xmlns:xlink="http://www.w3.org/1999/xlink">
    <!-- Generator: Sketch 60 (88103) - https://sketch.com -->
    <title>全部罐车</title>
    <desc>Created with Sketch.</desc>
    <g id="页面-1" stroke="none" stroke-width="1" fill="none" fill-rule="evenodd">
        <g id="1-1管理驾驶舱-数据总览" transform="translate(-288.000000, -440.000000)">
            <g id="编组-29" transform="translate(227.000000, 370.000000)">
                <g id="编组-6备份" transform="translate(31.000000, 64.000000)">
                    <g id="编组-26">
                        <g id="全部罐车" transform="translate(30.000000, 6.000000)">
                            <rect id="矩形备份-5" fill="#1755FF" x="0" y="0" width="50" height="50" rx="8"></rect>
                            <polygon id="路径" fill="#FFFFFF" opacity="0.629417783" points="38.7755102 34.6938776 10.2040816 34.6938776 10.2040816 35.3741497 10.2040816 36.0544218 10.2040816 36.7346939 38.7755102 36.7346939 38.7755102 36.0544218 38.7755102 35.3741497"></polygon>
                            <path d="M30.6272564,28.9808975 C30.6272564,30.5937007 31.9346917,31.901136 33.5474949,31.901136 C35.1602981,31.901136 36.4677334,30.5937007 36.4677334,28.9808975 L37.459641,28.9808975 L38.1479479,28.9808975 L38.4330539,28.9808975 L38.4330539,21.8788774 C38.4330539,21.4352822 38.2816479,21.0049736 38.0037788,20.6591911 L35.1054421,17.05367 C34.7356801,16.5938789 34.1774317,16.3265306 33.5874048,16.3265306 L29.6723384,16.3265306 C29.4141732,16.3265306 29.1665819,16.4290863 28.9840315,16.6116366 C28.8014812,16.7941869 28.6989255,17.0417783 28.6989255,17.2999434 L28.6989255,27.0340718 L26.7520999,27.0340718 L26.7520999,27.5258932 C26.7520999,26.4506911 25.8804763,25.5790675 24.8052742,25.5790675 L10.2040816,25.5790675 L10.2040816,27.5258932 L10.2040816,27.0340718 L10.2040816,28.9808975 L15.5578522,28.9808975 C15.5578522,30.0241982 16.1144465,30.9882479 17.0179715,31.5098982 C17.9214964,32.0315486 19.0346851,32.0315486 19.93821,31.5098982 C20.8417349,30.9882479 21.3983293,30.0241982 21.3983292,28.9808975 L30.6272564,28.9808975 Z M32.5925769,28.9808975 C32.5925769,28.4432964 33.0283886,28.0074846 33.5659897,28.0074846 C34.1035908,28.0074846 34.5394025,28.4432964 34.5394025,28.9808975 C34.5394025,29.5184985 34.1035908,29.9543103 33.5659897,29.9543103 C33.0283886,29.9543103 32.5925769,29.5184985 32.5925769,28.9808975 Z M31.8060593,18.7600627 L33.3888286,18.7600627 C33.5332502,18.7601168 33.6701892,18.824307 33.7626191,18.935277 L35.6992239,21.2602736 C35.7722299,21.3478807 35.8121398,21.4578764 35.8121398,21.5717657 L35.8121398,22.1670076 C35.8121398,22.4358082 35.5942339,22.653714 35.3254334,22.653714 L31.8060593,22.653714 C31.5372588,22.653714 31.3193529,22.4358081 31.3193529,22.1670076 L31.3193529,19.2467691 C31.3193529,18.9779686 31.5372588,18.7600627 31.8060593,18.7600627 Z M17.5046779,28.9808975 C17.5046779,28.4432964 17.9404897,28.0074846 18.4780907,28.0074846 C19.0156918,28.0074846 19.4515036,28.4432964 19.4515036,28.9808975 C19.4515036,29.5184985 19.0156918,29.9543103 18.4780907,29.9543103 C17.9404897,29.9543103 17.5046779,29.5184985 17.5046779,28.9808975 Z" id="形状" fill="#FFFFFF"></path>
                            <path d="M27.0604466,20.3324988 C24.1841996,18.1215031 22.3978245,16.9504926 21.7013211,16.8194672 C21.0576934,16.6983887 18.2994744,16.6547542 13.4266642,16.6885636 C13.1597882,16.6904153 12.7452025,16.6937155 12.1829074,16.6984642 C12.0771741,16.8891107 11.9996785,17.0293583 11.9504204,17.1192071 C11.342502,18.2280748 10.9788606,18.9663494 10.8594963,19.3340308 C10.7622914,19.6334537 10.721401,19.8719605 10.7368251,20.0495511 C10.7504414,20.2063285 10.9953496,20.510404 11.3929704,20.9011478 C13.066654,22.5458846 17.4460609,25.7261876 18.6708706,25.9203715 C19.6813974,26.0805827 21.6519465,26.157848 24.5825177,26.1521675 L27.0604466,20.3324988 Z" id="路径-24" fill="#FFFFFF"></path>
                        </g>
                    </g>
                </g>
            </g>
        </g>
    </g>
</svg>